<?xml version="1.0" encoding="utf-8"?>
<!-- Generator: Adobe Illustrator 15.0.0, SVG Export Plug-In  -->
<!DOCTYPE svg PUBLIC "-//W3C//DTD SVG 1.1//EN" "http://www.w3.org/Graphics/SVG/1.1/DTD/svg11.dtd" [
	<!ENTITY ns_flows "http://ns.adobe.com/Flows/1.0/">
]>
<svg version="1.1"
	 xmlns="http://www.w3.org/2000/svg" xmlns:xlink="http://www.w3.org/1999/xlink" xmlns:a="http://ns.adobe.com/AdobeSVGViewerExtensions/3.0/"
	 x="0px" y="0px" width="130px" height="36px" viewBox="-14.7676 -1.4346 130 36"
	 overflow="visible" enable-background="new -14.7676 -1.4346 130 36" xml:space="preserve">
<defs>
</defs>
<text transform="matrix(1 0 0 1 89.0234 32.9282)" fill="#666666" font-family="'HelveticaNeue'" font-size="7">&gt;1000</text>
<text transform="matrix(1 0 0 1 65.1094 32.9282)" fill="#666666" font-family="'HelveticaNeue'" font-size="7">401</text>
<text transform="matrix(1 0 0 1 42.9922 32.9282)" fill="#666666" font-family="'HelveticaNeue'" font-size="7">201</text>
<text transform="matrix(1 0 0 1 26.3711 32.9282)" fill="#666666" font-family="'HelveticaNeue'" font-size="7">51</text>
<text transform="matrix(1 0 0 1 14.2617 32.9282)" fill="#666666" font-family="'HelveticaNeue'" font-size="7">21</text>
<text transform="matrix(1 0 0 1 0 32.9287)"><tspan x="0" y="0" fill="#666666" font-family="'HelveticaNeue'" font-size="7">&gt;</tspan><tspan x="4.2002" y="0" fill="#666666" font-family="'HelveticaNeue'" font-size="3"> </tspan><tspan x="5.0342" y="0" fill="#666666" font-family="'HelveticaNeue'" font-size="7">6</tspan></text>
<g>
	<path fill="#0D697F" d="M100.8584,24.4165c-6.6631,0-12.084-5.4204-12.084-12.0835c0-6.6626,5.4209-12.083,12.084-12.083
		c6.6621,0,12.083,5.4204,12.083,12.083C112.9414,18.9961,107.5205,24.4165,100.8584,24.4165z"/>
	<path fill="#FFFFFF" d="M100.8584,0.5c6.5352,0,11.833,5.2983,11.833,11.833c0,6.5352-5.2979,11.8335-11.833,11.8335
		s-11.834-5.2983-11.834-11.8335C89.0244,5.7983,94.3232,0.5,100.8584,0.5 M100.8584,0c-6.8008,0-12.334,5.5327-12.334,12.333
		c0,6.8008,5.5332,12.3335,12.334,12.3335s12.333-5.5327,12.333-12.3335C113.1914,5.5327,107.6592,0,100.8584,0L100.8584,0z"/>
</g>
<g>
	<path fill="#0D697F" d="M71.2754,21.458c-5.0312,0-9.125-4.0933-9.125-9.1245c0-5.0317,4.0938-9.125,9.125-9.125
		s9.125,4.0933,9.125,9.125C80.4004,17.3647,76.3066,21.458,71.2754,21.458z"/>
	<path fill="#FFFFFF" d="M71.2754,3.4585c4.9023,0,8.875,3.9736,8.875,8.875s-3.9727,8.8745-8.875,8.8745
		c-4.9004,0-8.875-3.9731-8.875-8.8745S66.375,3.4585,71.2754,3.4585 M71.2754,2.9585c-5.1689,0-9.375,4.2056-9.375,9.375
		c0,5.1689,4.2061,9.3745,9.375,9.3745s9.375-4.2056,9.375-9.3745C80.6504,7.1641,76.4443,2.9585,71.2754,2.9585L71.2754,2.9585z"/>
</g>
<g>
	<path fill="#0D697F" d="M17.8115,16.312c-2.0957,0-3.7998-1.7046-3.7998-3.7998c0-2.0957,1.7041-3.8003,3.7998-3.8003
		s3.7998,1.7046,3.7998,3.8003C21.6113,14.6074,19.9072,16.312,17.8115,16.312z"/>
	<path fill="#FFFFFF" d="M17.8115,8.9619c1.9609,0,3.5498,1.5894,3.5498,3.5503c0,1.96-1.5889,3.5498-3.5498,3.5498
		s-3.5498-1.5898-3.5498-3.5498C14.2617,10.5513,15.8506,8.9619,17.8115,8.9619 M17.8115,8.4619
		c-2.2334,0-4.0498,1.8169-4.0498,4.0503c0,2.2329,1.8164,4.0498,4.0498,4.0498s4.0498-1.8169,4.0498-4.0498
		C21.8613,10.2788,20.0449,8.4619,17.8115,8.4619L17.8115,8.4619z"/>
</g>
<g>
	<path fill="#0D697F" d="M49.0498,19.6831c-4.0527,0-7.3496-3.2974-7.3496-7.3501s3.2969-7.3496,7.3496-7.3496
		s7.3496,3.2969,7.3496,7.3496S53.1025,19.6831,49.0498,19.6831z"/>
	<path fill="#FFFFFF" d="M49.0498,5.2334c3.9209,0,7.0996,3.1792,7.0996,7.0996c0,3.9214-3.1787,7.1001-7.0996,7.1001
		c-3.9199,0-7.0996-3.1787-7.0996-7.1001C41.9502,8.4126,45.1299,5.2334,49.0498,5.2334 M49.0498,4.7334
		c-4.1904,0-7.5996,3.4092-7.5996,7.5996c0,4.1909,3.4092,7.6001,7.5996,7.6001s7.5996-3.4092,7.5996-7.6001
		C56.6494,8.1426,53.2402,4.7334,49.0498,4.7334L49.0498,4.7334z"/>
</g>
<g>
	<path fill="#0D697F" d="M7.041,15.1284c-1.4434,0-2.6172-1.1738-2.6172-2.6167S5.5977,9.895,7.041,9.895
		c1.4424,0,2.6162,1.1738,2.6162,2.6167S8.4834,15.1284,7.041,15.1284z"/>
	<path fill="#FFFFFF" d="M7.041,10.145c1.3066,0,2.3662,1.0601,2.3662,2.3667c0,1.3071-1.0596,2.3667-2.3662,2.3667
		s-2.3672-1.0596-2.3672-2.3667C4.6738,11.2051,5.7344,10.145,7.041,10.145 M7.041,9.645c-1.5811,0-2.8672,1.2861-2.8672,2.8667
		S5.46,15.3784,7.041,15.3784c1.5801,0,2.8662-1.2861,2.8662-2.8667S8.6211,9.645,7.041,9.645L7.041,9.645z"/>
</g>
<g>
	<path fill="#0D697F" d="M30.5908,18.4419c-3.2695,0-5.9297-2.6602-5.9297-5.9302c0-3.2695,2.6602-5.9297,5.9297-5.9297
		s5.9297,2.6602,5.9297,5.9297C36.5205,15.7817,33.8604,18.4419,30.5908,18.4419z"/>
	<path fill="#FFFFFF" d="M30.5908,6.832c3.1367,0,5.6797,2.543,5.6797,5.6797s-2.543,5.6802-5.6797,5.6802
		c-3.1357,0-5.6797-2.5435-5.6797-5.6802S27.4551,6.832,30.5908,6.832 M30.5908,6.332c-3.4072,0-6.1797,2.772-6.1797,6.1797
		s2.7725,6.1802,6.1797,6.1802s6.1797-2.7725,6.1797-6.1802S33.998,6.332,30.5908,6.332L30.5908,6.332z"/>
</g>
</svg>
