<?xml version="1.0" encoding="utf-8"?>
<!-- Generator: Adobe Illustrator 15.0.0, SVG Export Plug-In  -->
<!DOCTYPE svg PUBLIC "-//W3C//DTD SVG 1.1//EN" "http://www.w3.org/Graphics/SVG/1.1/DTD/svg11.dtd" [
	<!ENTITY ns_flows "http://ns.adobe.com/Flows/1.0/">
]>
<svg version="1.1"
	 xmlns="http://www.w3.org/2000/svg" xmlns:xlink="http://www.w3.org/1999/xlink" xmlns:a="http://ns.adobe.com/AdobeSVGViewerExtensions/3.0/"
	 x="0px" y="0px" width="130px" height="36px" viewBox="-15.4756 -1.4346 130 36"
	 overflow="visible" enable-background="new -15.4756 -1.4346 130 36" xml:space="preserve">
<defs>
</defs>
<text transform="matrix(1 0 0 1 89.3174 32.9287)"><tspan x="0" y="0" fill="#666666" font-family="'MyriadPro-Cond'" font-size="7">&gt;</tspan><tspan x="4.1719" y="0" fill="#666666" font-family="'MyriadPro-Cond'" font-size="8">1000</tspan></text>
<text transform="matrix(1 0 0 1 66.0264 32.9287)" fill="#666666" font-family="'MyriadPro-Cond'" font-size="8">401</text>
<text transform="matrix(1 0 0 1 43.6074 32.9287)" fill="#666666" font-family="'MyriadPro-Cond'" font-size="8">201</text>
<text transform="matrix(1 0 0 1 27.1211 32.9287)" fill="#666666" font-family="'MyriadPro-Cond'" font-size="8">51</text>
<text transform="matrix(1 0 0 1 14.2832 32.9287)" fill="#666666" font-family="'MyriadPro-Cond'" font-size="8">21</text>
<text transform="matrix(1 0 0 1 0 32.9287)"><tspan x="0" y="0" fill="#666666" font-family="'MyriadPro-Cond'" font-size="7">&gt; </tspan><tspan x="5.2705" y="0" fill="#666666" font-family="'MyriadPro-Cond'" font-size="8">6</tspan></text>
<g>
	<path fill="#966B6B" d="M100.1504,24.4165c-6.6631,0-12.084-5.4204-12.084-12.0835c0-6.6626,5.4209-12.083,12.084-12.083
		c6.6621,0,12.083,5.4204,12.083,12.083C112.2334,18.9961,106.8125,24.4165,100.1504,24.4165z"/>
	<path fill="#FFFFFF" d="M100.1504,0.5c6.5352,0,11.833,5.2983,11.833,11.833c0,6.5352-5.2979,11.8335-11.833,11.8335
		s-11.834-5.2983-11.834-11.8335C88.3164,5.7983,93.6152,0.5,100.1504,0.5 M100.1504,0c-6.8008,0-12.334,5.5327-12.334,12.333
		c0,6.8008,5.5332,12.3335,12.334,12.3335s12.333-5.5327,12.333-12.3335C112.4834,5.5327,106.9512,0,100.1504,0L100.1504,0z"/>
</g>
<g>
	<path fill="#966B6B" d="M70.5674,21.458c-5.0312,0-9.125-4.0933-9.125-9.1245c0-5.0317,4.0938-9.125,9.125-9.125
		s9.125,4.0933,9.125,9.125C79.6924,17.3647,75.5986,21.458,70.5674,21.458z"/>
	<path fill="#FFFFFF" d="M70.5674,3.4585c4.9023,0,8.875,3.9736,8.875,8.875s-3.9727,8.8745-8.875,8.8745
		c-4.9004,0-8.875-3.9731-8.875-8.8745S65.667,3.4585,70.5674,3.4585 M70.5674,2.9585c-5.1689,0-9.375,4.2056-9.375,9.375
		c0,5.1689,4.2061,9.3745,9.375,9.3745s9.375-4.2056,9.375-9.3745C79.9424,7.1641,75.7363,2.9585,70.5674,2.9585L70.5674,2.9585z"/>
</g>
<g>
	<path fill="#966B6B" d="M17.1035,16.312c-2.0957,0-3.7998-1.7046-3.7998-3.7998c0-2.0957,1.7041-3.8003,3.7998-3.8003
		s3.7998,1.7046,3.7998,3.8003C20.9033,14.6074,19.1992,16.312,17.1035,16.312z"/>
	<path fill="#FFFFFF" d="M17.1035,8.9619c1.9609,0,3.5498,1.5894,3.5498,3.5503c0,1.96-1.5889,3.5498-3.5498,3.5498
		s-3.5498-1.5898-3.5498-3.5498C13.5537,10.5513,15.1426,8.9619,17.1035,8.9619 M17.1035,8.4619
		c-2.2334,0-4.0498,1.8169-4.0498,4.0503c0,2.2329,1.8164,4.0498,4.0498,4.0498s4.0498-1.8169,4.0498-4.0498
		C21.1533,10.2788,19.3369,8.4619,17.1035,8.4619L17.1035,8.4619z"/>
</g>
<g>
	<path fill="#966B6B" d="M48.3418,19.6831c-4.0527,0-7.3496-3.2974-7.3496-7.3501s3.2969-7.3496,7.3496-7.3496
		s7.3496,3.2969,7.3496,7.3496S52.3945,19.6831,48.3418,19.6831z"/>
	<path fill="#FFFFFF" d="M48.3418,5.2334c3.9209,0,7.0996,3.1792,7.0996,7.0996c0,3.9214-3.1787,7.1001-7.0996,7.1001
		c-3.9199,0-7.0996-3.1787-7.0996-7.1001C41.2422,8.4126,44.4219,5.2334,48.3418,5.2334 M48.3418,4.7334
		c-4.1904,0-7.5996,3.4092-7.5996,7.5996c0,4.1909,3.4092,7.6001,7.5996,7.6001s7.5996-3.4092,7.5996-7.6001
		C55.9414,8.1426,52.5322,4.7334,48.3418,4.7334L48.3418,4.7334z"/>
</g>
<g>
	<path fill="#966B6B" d="M6.333,15.1284c-1.4434,0-2.6172-1.1738-2.6172-2.6167S4.8896,9.895,6.333,9.895
		c1.4424,0,2.6162,1.1738,2.6162,2.6167S7.7754,15.1284,6.333,15.1284z"/>
	<path fill="#FFFFFF" d="M6.333,10.145c1.3066,0,2.3662,1.0601,2.3662,2.3667c0,1.3071-1.0596,2.3667-2.3662,2.3667
		s-2.3672-1.0596-2.3672-2.3667C3.9658,11.2051,5.0264,10.145,6.333,10.145 M6.333,9.645c-1.5811,0-2.8672,1.2861-2.8672,2.8667
		s1.2861,2.8667,2.8672,2.8667c1.5801,0,2.8662-1.2861,2.8662-2.8667S7.9131,9.645,6.333,9.645L6.333,9.645z"/>
</g>
<g>
	<path fill="#966B6B" d="M29.8828,18.4419c-3.2695,0-5.9297-2.6602-5.9297-5.9302c0-3.2695,2.6602-5.9297,5.9297-5.9297
		s5.9297,2.6602,5.9297,5.9297C35.8125,15.7817,33.1523,18.4419,29.8828,18.4419z"/>
	<path fill="#FFFFFF" d="M29.8828,6.832c3.1367,0,5.6797,2.543,5.6797,5.6797s-2.543,5.6802-5.6797,5.6802
		c-3.1357,0-5.6797-2.5435-5.6797-5.6802S26.7471,6.832,29.8828,6.832 M29.8828,6.332c-3.4072,0-6.1797,2.772-6.1797,6.1797
		s2.7725,6.1802,6.1797,6.1802s6.1797-2.7725,6.1797-6.1802S33.29,6.332,29.8828,6.332L29.8828,6.332z"/>
</g>
</svg>
